<?xml version="1.0" encoding="utf-8"?>
<!-- Generator: Adobe Illustrator 19.1.0, SVG Export Plug-In . SVG Version: 6.00 Build 0)  -->
<svg version="1.1" xmlns="http://www.w3.org/2000/svg" xmlns:xlink="http://www.w3.org/1999/xlink" x="0px" y="0px"
	 viewBox="0 0 34 34" enable-background="new 0 0 34 34" xml:space="preserve">
<g id="레이어_1">
</g>
<g id="새플">
</g>
<g id="아이콘">
</g>
<g id="book">
</g>
<g id="레이어_4">
</g>
<g id="레이어_6">
	<g opacity="0.7">
		<path fill="#A5A5A5" d="M13.302,20.693v-3.696c0-0.407,0.333-0.735,0.74-0.735h4.436c0.407,0,0.74-0.333,0.74-0.74v-0.74
			c0-0.407-0.333-0.74-0.74-0.74h-5.911c-0.816,0-1.48,0.664-1.48,1.48v6.651c0,0.816,0.664,1.48,1.48,1.48h5.171
			c0.816,0,1.48-0.664,1.48-1.48v-0.74h-5.176C13.635,21.433,13.302,21.105,13.302,20.693L13.302,20.693z M21.433,10.347h-5.171
			c-0.816,0-1.48,0.664-1.48,1.48v0.74h5.176c0.407,0,0.735,0.328,0.735,0.735v3.696c0,0.412-0.328,0.74-0.735,0.74h-4.436
			c-0.408,0-0.74-0.328-0.74-0.74v2.22c0,0.407,0.332,0.74,0.74,0.74h5.911c0.816,0,1.48-0.664,1.48-1.48v-6.651
			C22.913,11.011,22.249,10.347,21.433,10.347L21.433,10.347z M16.998,0C7.611,0,0,7.611,0,16.998C0,26.389,7.611,34,16.998,34
			C26.388,34,34,26.389,34,16.998C34,7.611,26.388,0,16.998,0L16.998,0z M16.998,31.045c-7.755,0-14.042-6.291-14.042-14.047
			c0-7.755,6.287-14.042,14.042-14.042c7.756,0,14.047,6.287,14.047,14.042C31.044,24.754,24.754,31.045,16.998,31.045
			L16.998,31.045z M16.998,31.045"/>
	</g>
</g>
</svg>
