<?xml version="1.0" encoding="utf-8"?>
<!-- Generator: Adobe Illustrator 16.0.0, SVG Export Plug-In . SVG Version: 6.00 Build 0)  -->
<!DOCTYPE svg PUBLIC "-//W3C//DTD SVG 1.1//EN" "http://www.w3.org/Graphics/SVG/1.1/DTD/svg11.dtd">
<svg version="1.1" xmlns="http://www.w3.org/2000/svg" xmlns:xlink="http://www.w3.org/1999/xlink" x="0px" y="0px" width="34px"
	 height="33px" viewBox="0 0 34 33" enable-background="new 0 0 34 33" xml:space="preserve">
<g id="레이어_1">
</g>
<g id="새플">
</g>
<g id="레이어_4">
</g>
<g id="레이어_6">
</g>
<g id="아이콘">
	<path fill="#8B8B8B" d="M30.357,32.127C30.356,32.127,30.356,32.127,30.357,32.127c-0.446,0-0.845-0.146-1.152-0.421l-9.336-8.333
		c-2.02,1.344-4.349,2.05-6.771,2.05c-6.769,0-12.274-5.507-12.274-12.276c0-6.768,5.506-12.274,12.274-12.274
		c6.768,0,12.274,5.506,12.274,12.274c0,2.34-0.659,4.597-1.914,6.567l9.155,8.17c0.83,0.744,0.732,2.163-0.221,3.233
		C31.826,31.75,31.066,32.127,30.357,32.127z M19.923,21.716c0.175,0,0.349,0.063,0.486,0.185l9.766,8.717
		c0.048,0.042,0.125,0.05,0.183,0.05l0,0c0.222,0,0.603-0.136,0.947-0.522c0.453-0.508,0.477-1.049,0.337-1.174l-9.629-8.594
		c-0.276-0.247-0.323-0.664-0.108-0.966c1.316-1.846,2.011-4.012,2.011-6.265c0-5.964-4.853-10.816-10.817-10.816
		C7.134,2.331,2.28,7.183,2.28,13.147c0,5.965,4.854,10.819,10.817,10.819c2.308,0,4.519-0.73,6.394-2.108
		C19.621,21.763,19.772,21.716,19.923,21.716z M13.098,21.944c-4.851,0-8.797-3.947-8.797-8.797c0-4.851,3.946-8.797,8.797-8.797
		s8.797,3.947,8.797,8.797C21.895,17.997,17.948,21.944,13.098,21.944z M13.098,5.807c-4.047,0-7.34,3.292-7.34,7.34
		c0,4.047,3.293,7.339,7.34,7.339s7.339-3.292,7.339-7.339C20.437,9.1,17.145,5.807,13.098,5.807z"/>
</g>
<g id="book">
</g>
</svg>
