<?xml version="1.0" encoding="UTF-8"?>
<svg xmlns="http://www.w3.org/2000/svg" xmlns:xlink="http://www.w3.org/1999/xlink" width="1401pt" height="1980pt" viewBox="0 0 1401 1980" version="1.2">
<defs>
<clipPath id="clip1">
  <rect width="1400" height="1979"/>
</clipPath>
<g id="surface63437" clip-path="url(#clip1)">
<rect x="0" y="0" width="1400" height="1979" style="fill:rgb(57.946777%,56.459045%,46.760559%);fill-opacity:1;stroke:none;"/>
</g>
<clipPath id="clip2">
  <rect width="1400" height="1979"/>
</clipPath>
<g id="surface63440" clip-path="url(#clip2)">
<rect x="0" y="0" width="1400" height="1979" style="fill:rgb(57.946777%,56.459045%,46.760559%);fill-opacity:1;stroke:none;"/>
</g>
<filter id="alpha" filterUnits="objectBoundingBox" x="0%" y="0%" width="100%" height="100%">
  <feColorMatrix type="matrix" in="SourceGraphic" values="0 0 0 0 1 0 0 0 0 1 0 0 0 0 1 0 0 0 1 0"/>
</filter>
<mask id="mask0">
  <g filter="url(#alpha)">
<rect x="0" y="0" width="1401" height="1980" style="fill:rgb(0%,0%,0%);fill-opacity:0.149994;stroke:none;"/>
  </g>
</mask>
<clipPath id="clip3">
  <rect width="688" height="124"/>
</clipPath>
<g id="surface63439" clip-path="url(#clip3)">
<path style=" stroke:none;fill-rule:nonzero;fill:rgb(100%,100%,100%);fill-opacity:1;" d="M 637.265625 2.457031 C 623.839844 2.457031 610.148438 7.742188 599.601563 18.226563 C 579.25 38.457031 578.335938 70.351563 597.554688 89.460938 C 600.824219 92.714844 604.476563 95.375 608.378906 97.460938 C 605.863281 105.230469 603.976563 113.273438 602.792969 121.550781 L 612.921875 121.550781 C 614.089844 114.601563 615.367188 107.835938 617.496094 101.265625 C 621.984375 102.558594 626.664063 103.203125 631.382813 103.203125 C 644.84375 103.203125 658.609375 97.949219 669.140625 87.484375 C 686.65625 70.070313 690.09375 42.632813 677.296875 23.296875 L 662.992188 23.296875 C 640.496094 38.777344 622.757813 61.316406 612.195313 87.003906 C 609.742188 85.316406 607.402344 83.410156 605.203125 81.226563 C 587.207031 63.335938 585.460938 36.6875 601.8125 20.433594 C 609.183594 13.109375 618.097656 9.707031 627.332031 9.707031 C 634.539063 9.707031 641.933594 11.773438 648.949219 15.65625 L 661.335938 8.703125 C 653.980469 4.53125 645.675781 2.457031 637.265625 2.457031 M 640.238281 95.988281 C 633.820313 95.988281 627.226563 94.582031 620.945313 91.917969 L 620.894531 91.894531 C 630.710938 67.59375 646.5625 45.785156 667.679688 31.085938 L 667.703125 31.09375 C 680.328125 48.648438 681.074219 70.996094 666.921875 85.28125 C 659.65625 92.617188 650.15625 95.988281 640.238281 95.988281 "/>
<path style=" stroke:none;fill-rule:nonzero;fill:rgb(100%,100%,100%);fill-opacity:1;" d="M 198.160156 71.6875 L 198.160156 23.273438 L 182.660156 23.273438 L 182.660156 71.6875 C 182.660156 92.25 196.855469 101.390625 213.179688 101.703125 L 213.179688 101.121094 C 201.859375 100.152344 198.160156 86.621094 198.160156 71.6875 "/>
<path style=" stroke:none;fill-rule:nonzero;fill:rgb(100%,100%,100%);fill-opacity:1;" d="M 231.097656 71.6875 C 231.097656 86.621094 227.402344 100.152344 216.082031 101.121094 L 216.082031 101.703125 C 232.410156 101.390625 246.597656 92.25 246.597656 71.6875 L 246.597656 23.273438 L 231.097656 23.273438 Z M 231.097656 71.6875 "/>
<path style=" stroke:none;fill-rule:nonzero;fill:rgb(100%,100%,100%);fill-opacity:1;" d="M 380.285156 100.730469 L 395.785156 100.730469 L 395.785156 23.273438 L 380.285156 23.273438 Z M 380.285156 100.730469 "/>
<path style=" stroke:none;fill-rule:nonzero;fill:rgb(100%,100%,100%);fill-opacity:1;" d="M 47.648438 26.800781 C 41.347656 23.828125 32.355469 23.273438 20.882813 23.273438 L 2.480469 23.273438 L 2.480469 100.730469 L 17.976563 100.730469 L 17.976563 24.4375 L 20.882813 24.4375 C 32.019531 24.4375 43.164063 29.894531 43.164063 45.542969 C 43.164063 61.191406 32.019531 67.230469 20.882813 67.230469 L 20.882813 67.808594 C 32.355469 67.808594 41.347656 67.261719 47.648438 64.285156 C 55.066406 60.761719 58.664063 54.46875 58.664063 45.542969 C 58.664063 36.617188 55.066406 30.328125 47.648438 26.800781 "/>
<path style=" stroke:none;fill-rule:nonzero;fill:rgb(100%,100%,100%);fill-opacity:1;" d="M 138.144531 60.71875 C 145.945313 57.503906 149.726563 51.757813 149.726563 43.605469 C 149.726563 35.457031 145.945313 29.710938 138.144531 26.496094 C 131.523438 23.777344 122.066406 23.273438 110.007813 23.273438 L 91.601563 23.273438 L 91.601563 100.734375 L 107.101563 100.734375 L 107.101563 24.433594 L 110.007813 24.433594 C 121.710938 24.433594 133.433594 29.316406 133.433594 43.605469 C 133.433594 53.925781 127.3125 59.625 119.507813 62.003906 C 116.800781 62.828125 113.898438 63.257813 110.972656 63.328125 L 138.101563 100.734375 L 155.539063 100.734375 L 128.230469 63.089844 C 132.019531 62.601563 135.351563 61.867188 138.144531 60.71875 "/>
<path style=" stroke:none;fill-rule:nonzero;fill:rgb(100%,100%,100%);fill-opacity:1;" d="M 464.5625 22.304688 C 442.628906 22.304688 424.84375 40.078125 424.84375 62.007813 C 424.84375 83.441406 441.847656 100.9375 463.113281 101.703125 L 463.113281 101.121094 C 450.949219 99.855469 441.3125 82.785156 441.3125 62.007813 C 441.3125 40.398438 451.722656 23.46875 464.566406 23.46875 C 477.402344 23.46875 487.8125 40.398438 487.8125 62.007813 C 487.8125 82.785156 478.179688 99.859375 466.015625 101.121094 L 466.015625 101.703125 C 487.277344 100.9375 504.28125 83.441406 504.28125 62.007813 C 504.28125 40.078125 486.5 22.304688 464.5625 22.304688 "/>
<path style=" stroke:none;fill-rule:nonzero;fill:rgb(100%,100%,100%);fill-opacity:1;" d="M 326.035156 68.394531 C 330.695313 71.585938 333.78125 76.902344 333.78125 83.207031 C 333.78125 93.101563 326.195313 101.121094 316.832031 101.121094 L 316.832031 101.699219 C 323.75 101.695313 339.289063 100.730469 347.347656 97.828125 L 347.347656 67.8125 L 326.035156 67.8125 Z M 326.035156 68.394531 "/>
<path style=" stroke:none;fill-rule:nonzero;fill:rgb(100%,100%,100%);fill-opacity:1;" d="M 292.132813 62.003906 L 292.128906 62.003906 C 292.128906 40.402344 304.996094 25.210938 321.578125 25.210938 C 331.605469 25.210938 340.730469 30.402344 346.1875 39.730469 L 346.765625 39.730469 L 346.765625 25.210938 C 346.765625 25.210938 333.386719 22.503906 321.578125 22.304688 L 319.738281 22.304688 C 293.484375 22.304688 275.660156 40.078125 275.660156 62.003906 C 275.660156 83.441406 292.664063 100.9375 313.929688 101.703125 L 313.929688 101.121094 C 301.765625 99.855469 292.132813 82.785156 292.132813 62.003906 "/>
</g>
</defs>
<g id="surface63427">
<use xlink:href="#surface63437" comp-op="multiply" transform="matrix(1,0,0,1,0,0.000000000000073386)"/>
<use xlink:href="#surface63440" comp-op="multiply" transform="matrix(1,0,0,1,0,0.000000000000073386)"/>
<use xlink:href="#surface63439" transform="matrix(1,0,0,1,95,414)" mask="url(#mask0)"/>
</g>
</svg>
