<?xml version="1.0" encoding="UTF-8"?>
<svg xmlns="http://www.w3.org/2000/svg" xmlns:xlink="http://www.w3.org/1999/xlink" width="1401pt" height="1980pt" viewBox="0 0 1401 1980" version="1.2">
<g id="surface64192">
<path style="fill:none;stroke-width:4;stroke-linecap:butt;stroke-linejoin:miter;stroke:rgb(14.286804%,29.928589%,31.57959%);stroke-opacity:1;stroke-miterlimit:4;" d="M 0.000759665 -0.000102545 L 972.283786 -0.000102545 " transform="matrix(2.35185,0,0,-2.350663,-1266.665849,191.230228)"/>
<path style=" stroke:none;fill-rule:nonzero;fill:rgb(100%,100%,100%);fill-opacity:1;" d="M 0 1932.359375 L 1399.996094 1932.359375 L 1399.996094 74.863281 L 0 74.863281 Z M 0 1932.359375 "/>
<path style=" stroke:none;fill-rule:nonzero;fill:rgb(14.286804%,29.928589%,31.57959%);fill-opacity:1;" d="M 852.046875 958.65625 C 845.089844 958.65625 838 961.394531 832.539063 966.824219 C 821.992188 977.300781 821.519531 993.824219 831.476563 1003.722656 C 833.167969 1005.40625 835.0625 1006.785156 837.082031 1007.867188 C 835.78125 1011.890625 834.800781 1016.058594 834.1875 1020.34375 L 839.4375 1020.34375 C 840.042969 1016.746094 840.703125 1013.238281 841.804688 1009.839844 C 844.132813 1010.507813 846.554688 1010.84375 848.996094 1010.84375 C 855.972656 1010.84375 863.101563 1008.121094 868.558594 1002.699219 C 877.628906 993.679688 879.410156 979.464844 872.785156 969.449219 L 865.371094 969.449219 C 853.71875 977.46875 844.527344 989.144531 839.058594 1002.449219 C 837.792969 1001.578125 836.574219 1000.589844 835.4375 999.457031 C 826.117188 990.191406 825.214844 976.386719 833.683594 967.964844 C 837.5 964.171875 842.117188 962.410156 846.902344 962.410156 C 850.632813 962.410156 854.464844 963.480469 858.097656 965.492188 L 864.511719 961.890625 C 860.703125 959.730469 856.402344 958.65625 852.046875 958.65625 M 853.585938 1007.105469 C 850.261719 1007.105469 846.847656 1006.375 843.589844 1004.996094 L 843.566406 1004.984375 C 848.652344 992.394531 856.863281 981.097656 867.800781 973.484375 L 867.816406 973.488281 C 874.351563 982.582031 874.738281 994.160156 867.40625 1001.558594 C 863.644531 1005.359375 858.726563 1007.105469 853.585938 1007.105469 "/>
<path style=" stroke:none;fill-rule:nonzero;fill:rgb(14.286804%,29.928589%,31.57959%);fill-opacity:1;" d="M 624.589844 994.515625 L 624.589844 969.4375 L 616.5625 969.4375 L 616.5625 994.515625 C 616.5625 1005.167969 623.914063 1009.902344 632.367188 1010.0625 L 632.367188 1009.761719 C 626.503906 1009.261719 624.589844 1002.253906 624.589844 994.515625 "/>
<path style=" stroke:none;fill-rule:nonzero;fill:rgb(14.286804%,29.928589%,31.57959%);fill-opacity:1;" d="M 641.652344 994.515625 C 641.652344 1002.253906 639.738281 1009.261719 633.875 1009.761719 L 633.875 1010.0625 C 642.332031 1009.902344 649.679688 1005.167969 649.679688 994.515625 L 649.679688 969.4375 L 641.652344 969.4375 Z M 641.652344 994.515625 "/>
<path style=" stroke:none;fill-rule:nonzero;fill:rgb(14.286804%,29.928589%,31.57959%);fill-opacity:1;" d="M 718.929688 1009.5625 L 726.960938 1009.5625 L 726.960938 969.4375 L 718.929688 969.4375 Z M 718.929688 1009.5625 "/>
<path style=" stroke:none;fill-rule:nonzero;fill:rgb(14.286804%,29.928589%,31.57959%);fill-opacity:1;" d="M 546.625 971.265625 C 543.359375 969.726563 538.699219 969.4375 532.761719 969.4375 L 523.226563 969.4375 L 523.226563 1009.5625 L 531.253906 1009.5625 L 531.253906 970.039063 L 532.761719 970.039063 C 538.527344 970.039063 544.304688 972.867188 544.304688 980.972656 C 544.304688 989.082031 538.527344 992.210938 532.761719 992.210938 L 532.761719 992.507813 C 538.699219 992.507813 543.359375 992.222656 546.625 990.683594 C 550.46875 988.855469 552.328125 985.597656 552.328125 980.972656 C 552.328125 976.351563 550.46875 973.089844 546.625 971.265625 "/>
<path style=" stroke:none;fill-rule:nonzero;fill:rgb(14.286804%,29.928589%,31.57959%);fill-opacity:1;" d="M 593.5 988.835938 C 597.542969 987.167969 599.5 984.191406 599.5 979.972656 C 599.5 975.75 597.542969 972.773438 593.5 971.105469 C 590.070313 969.699219 585.171875 969.4375 578.925781 969.4375 L 569.394531 969.4375 L 569.394531 1009.5625 L 577.421875 1009.5625 L 577.421875 970.039063 L 578.925781 970.039063 C 584.988281 970.039063 591.058594 972.570313 591.058594 979.972656 C 591.058594 985.316406 587.890625 988.269531 583.847656 989.5 C 582.445313 989.929688 580.941406 990.148438 579.425781 990.1875 L 593.480469 1009.5625 L 602.511719 1009.5625 L 588.367188 990.0625 C 590.328125 989.8125 592.054688 989.429688 593.5 988.835938 "/>
<path style=" stroke:none;fill-rule:nonzero;fill:rgb(14.286804%,29.928589%,31.57959%);fill-opacity:1;" d="M 762.585938 968.9375 C 751.222656 968.9375 742.011719 978.140625 742.011719 989.5 C 742.011719 1000.605469 750.820313 1009.667969 761.832031 1010.0625 L 761.832031 1009.761719 C 755.53125 1009.105469 750.542969 1000.265625 750.542969 989.5 C 750.542969 978.308594 755.933594 969.539063 762.585938 969.539063 C 769.238281 969.539063 774.628906 978.308594 774.628906 989.5 C 774.628906 1000.265625 769.640625 1009.109375 763.339844 1009.761719 L 763.339844 1010.0625 C 774.351563 1009.667969 783.160156 1000.605469 783.160156 989.5 C 783.160156 978.140625 773.949219 968.9375 762.585938 968.9375 "/>
<path style=" stroke:none;fill-rule:nonzero;fill:rgb(14.286804%,29.928589%,31.57959%);fill-opacity:1;" d="M 690.828125 992.808594 C 693.242188 994.464844 694.84375 997.21875 694.84375 1000.484375 C 694.84375 1005.609375 690.910156 1009.761719 686.0625 1009.761719 L 686.0625 1010.0625 C 689.644531 1010.058594 697.695313 1009.5625 701.867188 1008.058594 L 701.867188 992.507813 L 690.828125 992.507813 Z M 690.828125 992.808594 "/>
<path style=" stroke:none;fill-rule:nonzero;fill:rgb(14.286804%,29.928589%,31.57959%);fill-opacity:1;" d="M 673.265625 989.5 C 673.265625 978.3125 679.929688 970.441406 688.519531 970.441406 C 693.714844 970.441406 698.441406 973.128906 701.269531 977.964844 L 701.566406 977.964844 L 701.566406 970.441406 C 701.566406 970.441406 694.636719 969.039063 688.519531 968.9375 L 687.566406 968.9375 C 673.96875 968.9375 664.738281 978.144531 664.738281 989.5 C 664.738281 1000.605469 673.542969 1009.667969 684.558594 1010.0625 L 684.558594 1009.761719 C 678.257813 1009.109375 673.265625 1000.265625 673.265625 989.5 "/>
</g>
</svg>
