<?xml version="1.0" encoding="utf-8"?>
<!-- Generator: Adobe Illustrator 19.1.0, SVG Export Plug-In . SVG Version: 6.00 Build 0)  -->
<svg version="1.1" xmlns="http://www.w3.org/2000/svg" xmlns:xlink="http://www.w3.org/1999/xlink" x="0px" y="0px"
	 viewBox="0 0 31.001 31" enable-background="new 0 0 31.001 31" xml:space="preserve">
<g id="레이어_1">
</g>
<g id="새플">
</g>
<g id="아이콘">
	<g opacity="0.7">
		<polygon fill="#7A7A7B" points="12.414,13.855 13.836,13.855 13.125,11.59 		"/>
		<path fill="#7A7A7B" d="M15.493,3.922c-6.506,0-11.781,4.074-11.781,9.098c0,3.287,2.259,6.168,5.643,7.768l-1.161,4.199
			c0,0-0.097,0.394,0.25,0.299c0.382-0.106,3.925-2.607,4.922-3.314c0.689,0.096,1.4,0.148,2.126,0.148
			c6.506,0,11.781-4.074,11.781-9.1C27.273,7.996,21.999,3.922,15.493,3.922z M9.793,15.52c0,0.356-0.302,0.646-0.674,0.646
			c-0.373,0-0.675-0.291-0.675-0.646v-4.004c0-0.014,0.001-0.025,0.002-0.037H7.382c-0.353,0-0.638-0.291-0.638-0.646
			c0-0.357,0.285-0.649,0.638-0.649h3.524c0.352,0,0.638,0.291,0.638,0.649c0,0.356-0.286,0.646-0.638,0.646H9.792
			c0,0.012,0.001,0.023,0.001,0.037V15.52z M15.241,16.15c-0.347,0.104-0.727-0.133-0.849-0.523l-0.205-0.652h-2.126l-0.205,0.652
			c-0.122,0.391-0.503,0.627-0.849,0.523c-0.347-0.1-0.528-0.496-0.406-0.887l1.641-4.586c0.099-0.318,0.369-0.533,0.652-0.549l0,0
			h0.474l0,0c0.277,0.023,0.539,0.234,0.637,0.549l1.64,4.586C15.77,15.654,15.588,16.051,15.241,16.15z M18.836,16.115h-2.1
			c-0.362,0-0.655-0.281-0.655-0.631c0,0,0-0.006,0-0.01v-0.008v-4.725c0-0.373,0.318-0.676,0.712-0.676
			c0.394,0,0.713,0.303,0.713,0.676v4.109h1.331c0.362,0,0.656,0.285,0.656,0.633C19.492,15.834,19.198,16.115,18.836,16.115z
			 M23.87,16.068c-0.304,0.246-0.733,0.213-0.961-0.068l-1.642-2.041l-0.125,0.125v1.326c0,0.416-0.339,0.756-0.757,0.756
			c-0.418,0-0.756-0.34-0.756-0.756v-4.525c0-0.416,0.338-0.756,0.756-0.756c0.417,0,0.757,0.34,0.757,0.756v1.348l1.753-1.754
			c0.256-0.254,0.67-0.254,0.926,0c0.256,0.256,0.256,0.67,0,0.928l-1.551,1.551l1.738,2.16
			C24.234,15.398,24.172,15.824,23.87,16.068z"/>
	</g>
</g>
<g id="book">
</g>
<g id="레이어_4">
</g>
<g id="레이어_6">
</g>
</svg>
