<?xml version="1.0" encoding="utf-8"?>
<!-- Generator: Adobe Illustrator 19.1.0, SVG Export Plug-In . SVG Version: 6.00 Build 0)  -->
<svg version="1.1" xmlns="http://www.w3.org/2000/svg" xmlns:xlink="http://www.w3.org/1999/xlink" x="0px" y="0px"
	 viewBox="0 0 31.001 31" enable-background="new 0 0 31.001 31" xml:space="preserve">
<g id="레이어_1">
</g>
<g id="새플">
</g>
<g id="아이콘">
	<g opacity="0.7">
		<path fill="#7A7A7B" d="M25.599,7.264c-0.847,0.496-1.786,0.856-2.785,1.049c-0.799-0.838-1.939-1.363-3.201-1.363
			c-2.422,0-4.385,1.934-4.385,4.318c0,0.338,0.04,0.666,0.113,0.983c-3.645-0.18-6.877-1.899-9.04-4.51
			C5.924,8.377,5.707,9.117,5.707,9.91c0,1.498,0.776,2.818,1.951,3.594c-0.717-0.024-1.395-0.219-1.987-0.541v0.055
			c0,2.092,1.512,3.836,3.52,4.234c-0.37,0.1-0.756,0.15-1.158,0.15c-0.282,0-0.556-0.025-0.825-0.076
			c0.56,1.715,2.179,2.963,4.097,2.998c-1.501,1.158-3.393,1.848-5.448,1.848c-0.355,0-0.703-0.02-1.047-0.06
			c1.941,1.225,4.248,1.939,6.724,1.939c8.068,0,12.479-6.576,12.479-12.283c0-0.188-0.003-0.373-0.012-0.559
			c0.857-0.607,1.6-1.369,2.188-2.234c-0.786,0.344-1.63,0.574-2.519,0.678C24.577,9.119,25.272,8.273,25.599,7.264"/>
	</g>
</g>
<g id="book">
</g>
<g id="레이어_4">
</g>
<g id="레이어_6">
</g>
</svg>
