<?xml version="1.0" encoding="utf-8"?>
<!-- Generator: Adobe Illustrator 16.0.0, SVG Export Plug-In . SVG Version: 6.00 Build 0)  -->
<!DOCTYPE svg PUBLIC "-//W3C//DTD SVG 1.1//EN" "http://www.w3.org/Graphics/SVG/1.1/DTD/svg11.dtd">
<svg version="1.1" xmlns="http://www.w3.org/2000/svg" xmlns:xlink="http://www.w3.org/1999/xlink" x="0px" y="0px" width="68px"
	 height="60px" viewBox="0 0 68 60" enable-background="new 0 0 68 60" xml:space="preserve">
<g id="레이어_1">
</g>
<g id="새플">
</g>
<g id="레이어_4">
</g>
<g id="레이어_6">
</g>
<g id="아이콘">
	<g>
		<g>
			<path fill="#FFFFFF" d="M16.896,51.979h10.973v1.33h-4.748v1.176h3.006c0.133,0,0.228,0.03,0.286,0.091
				c0.058,0.062,0.086,0.161,0.086,0.302v3.71h-1.542v-2.772H18.12v-1.33h3.445V53.31h-4.668V51.979z M18.213,50.678v-4.592h1.49
				v1.26h5.333v-1.26h1.503v4.592c0,0.149-0.029,0.252-0.086,0.308c-0.058,0.057-0.153,0.084-0.286,0.084h-7.594
				c-0.142,0-0.237-0.027-0.286-0.084C18.238,50.93,18.213,50.827,18.213,50.678z M25.036,49.781v-1.204h-5.333v1.204H25.036z"/>
			<path fill="#FFFFFF" d="M26.599,58.688h-1.743v-2.772H18.02v-1.53h3.445V53.41h-4.668v-1.53h11.173v1.53h-4.748v0.976h2.906
				c0.161,0,0.281,0.041,0.358,0.122c0.077,0.082,0.114,0.203,0.114,0.371V58.688z M25.057,58.488h1.342v-3.61
				c0-0.111-0.021-0.192-0.059-0.233c-0.047-0.049-0.142-0.059-0.213-0.059h-3.106v-1.376h4.748v-1.13H16.997v1.13h4.668v1.376
				H18.22v1.13h6.836V58.488z M26.167,51.169h-7.594c-0.175,0-0.293-0.039-0.362-0.119c-0.065-0.074-0.097-0.196-0.097-0.373v-4.692
				h1.69v1.26h5.133v-1.26h1.703v4.692c0,0.179-0.039,0.304-0.117,0.379C26.446,51.132,26.329,51.169,26.167,51.169z M18.313,46.186
				v4.492c0,0.168,0.034,0.225,0.048,0.242c0.013,0.016,0.059,0.05,0.21,0.05h7.594c0.104,0,0.179-0.019,0.216-0.055
				c0.021-0.021,0.057-0.078,0.057-0.236v-4.492h-1.303v1.26h-5.533v-1.26H18.313z M25.136,49.881h-5.533v-1.404h5.533V49.881z
				 M19.803,49.681h5.133v-1.004h-5.133V49.681z"/>
		</g>
		<g>
			<path fill="#FFFFFF" d="M29.625,46.729h4.868c0.133,0,0.228,0.03,0.286,0.091c0.058,0.062,0.086,0.161,0.086,0.302v7.966
				c0,0.149-0.029,0.252-0.086,0.308s-0.153,0.084-0.286,0.084h-4.881c-0.142,0-0.237-0.028-0.286-0.084
				c-0.049-0.056-0.073-0.158-0.073-0.308v-7.966c0-0.141,0.026-0.24,0.08-0.302C29.385,46.76,29.483,46.729,29.625,46.729z
				 M33.375,54.122v-6.076h-2.633v6.076H33.375z M36.581,58.518v-12.53h1.49v4.494h1.623v1.414H38.07v6.622H36.581z"/>
			<path fill="#FFFFFF" d="M38.17,58.618h-1.69v-12.73h1.69v4.494h1.623v1.614H38.17V58.618z M36.681,58.417h1.29v-6.622h1.623
				v-1.214H37.97v-4.494h-1.29V58.417z M34.493,55.58h-4.881c-0.174,0-0.292-0.039-0.361-0.119
				c-0.065-0.075-0.098-0.197-0.098-0.373v-7.966c0-0.166,0.034-0.286,0.104-0.367c0.074-0.084,0.195-0.125,0.369-0.125h4.868
				c0.161,0,0.281,0.041,0.358,0.122c0.077,0.082,0.114,0.203,0.114,0.371v7.966c0,0.179-0.039,0.304-0.117,0.379
				C34.771,55.542,34.651,55.58,34.493,55.58z M29.625,46.83c-0.108,0-0.186,0.02-0.218,0.057c-0.036,0.042-0.055,0.123-0.055,0.236
				v7.966c0,0.168,0.034,0.225,0.048,0.242c0.013,0.015,0.06,0.05,0.21,0.05h4.881c0.104,0,0.178-0.019,0.216-0.056
				c0.021-0.021,0.056-0.078,0.056-0.236v-7.966c0-0.111-0.021-0.192-0.059-0.233c-0.047-0.049-0.142-0.059-0.213-0.059H29.625z
				 M33.476,54.222h-2.833v-6.276h2.833V54.222z M30.842,54.022h2.433v-5.876h-2.433V54.022z"/>
		</g>
		<g>
			<path fill="#FFFFFF" d="M51.077,56.949H40.078v-1.344h6.982c0.16-0.597,0.308-1.201,0.446-1.813
				c0.137-0.611,0.259-1.226,0.366-1.842c-0.585,0.131-1.246,0.218-1.982,0.26s-1.476,0.063-2.221,0.063h-2.5V50.93h3.298
				c0.673,0,1.292-0.012,1.855-0.035s1.142-0.077,1.736-0.161c0.053-0.42,0.093-0.847,0.12-1.281c0.027-0.434,0.04-0.865,0.04-1.295
				h-6.903v-1.33h8.1c0.133,0,0.229,0.031,0.286,0.092s0.086,0.161,0.086,0.301c0,0.541-0.033,1.16-0.1,1.854
				c-0.066,0.695-0.153,1.421-0.259,2.178c-0.106,0.746-0.235,1.495-0.386,2.247c-0.151,0.751-0.311,1.453-0.479,2.106h2.514V56.949
				z"/>
			<path fill="#FFFFFF" d="M51.177,57.049H39.978v-1.544h7.006c0.15-0.564,0.292-1.147,0.425-1.734
				c0.126-0.561,0.24-1.128,0.339-1.691c-0.554,0.115-1.176,0.192-1.852,0.23c-0.729,0.042-1.478,0.063-2.227,0.063h-2.6V50.83
				h3.398c0.669,0,1.292-0.012,1.851-0.035c0.533-0.022,1.088-0.072,1.65-0.149c0.048-0.395,0.085-0.797,0.11-1.199
				c0.024-0.394,0.038-0.793,0.04-1.189h-6.903v-1.53h8.2c0.16,0,0.281,0.042,0.358,0.123c0.077,0.081,0.114,0.202,0.114,0.37
				c0,0.542-0.034,1.17-0.1,1.864c-0.066,0.692-0.154,1.426-0.26,2.182c-0.105,0.739-0.236,1.497-0.387,2.252
				c-0.141,0.702-0.292,1.37-0.448,1.987h2.485V57.049z M40.178,56.849h10.799v-1.144h-2.542l0.032-0.125
				c0.167-0.648,0.328-1.355,0.478-2.101c0.15-0.752,0.28-1.506,0.385-2.242c0.106-0.752,0.193-1.484,0.259-2.173
				c0.066-0.688,0.099-1.309,0.099-1.845c0-0.111-0.021-0.191-0.059-0.232c-0.038-0.04-0.112-0.061-0.214-0.061h-8v1.13h6.903v0.1
				c0,0.432-0.014,0.87-0.041,1.301c-0.026,0.431-0.066,0.865-0.12,1.288l-0.009,0.076l-0.076,0.011
				c-0.595,0.084-1.182,0.139-1.746,0.162c-0.562,0.023-1.188,0.035-1.859,0.035h-3.198v1.144h2.4c0.746,0,1.491-0.021,2.215-0.062
				c0.725-0.042,1.387-0.128,1.966-0.258l0.146-0.033l-0.025,0.147c-0.106,0.613-0.229,1.234-0.367,1.847
				c-0.139,0.616-0.289,1.227-0.447,1.816l-0.02,0.074h-6.959V56.849z"/>
		</g>
	</g>
	<g>
		<path fill="#8B8B8B" d="M42.337,36.557c-0.608,0-1.196-0.182-1.699-0.526L17.029,19.88c-0.164-0.112-0.295-0.293-0.337-0.487
			L14.201,7.979c-0.291-1.353,0.612-2.698,2.012-3.003l12.086-2.634c0.209-0.046,0.428-0.003,0.604,0.117l23.638,16.17
			c0.664,0.454,1.112,1.139,1.261,1.931c0.148,0.791-0.02,1.592-0.475,2.257l-8.501,12.428
			C44.263,36.067,43.334,36.557,42.337,36.557z M18.143,18.761l23.372,15.988c0.645,0.441,1.591,0.26,2.03-0.38l8.501-12.429
			c0.22-0.322,0.301-0.711,0.229-1.094c-0.071-0.383-0.289-0.715-0.61-0.935L28.301,3.93L16.543,6.493
			c-0.565,0.124-0.936,0.642-0.826,1.157L18.143,18.761z"/>
		<path fill="#8B8B8B" d="M22.442,14.24c-0.69,0-1.358-0.206-1.931-0.598c-1.558-1.067-1.958-3.203-0.893-4.763
			c0.638-0.934,1.696-1.492,2.829-1.492c0.691,0,1.36,0.208,1.933,0.599c1.559,1.066,1.96,3.201,0.895,4.762
			C24.634,13.682,23.575,14.24,22.442,14.24z M22.448,8.879c-0.64,0-1.238,0.314-1.598,0.842c-0.292,0.426-0.401,0.94-0.306,1.448
			c0.096,0.508,0.383,0.948,0.81,1.24c0.856,0.584,2.107,0.346,2.689-0.504c0.602-0.88,0.375-2.087-0.505-2.689
			C23.214,8.996,22.837,8.879,22.448,8.879z"/>
	</g>
</g>
<g id="book">
</g>
</svg>
