<?xml version="1.0" encoding="utf-8"?>
<!-- Generator: Adobe Illustrator 16.0.0, SVG Export Plug-In . SVG Version: 6.00 Build 0)  -->
<!DOCTYPE svg PUBLIC "-//W3C//DTD SVG 1.1//EN" "http://www.w3.org/Graphics/SVG/1.1/DTD/svg11.dtd">
<svg version="1.1" xmlns="http://www.w3.org/2000/svg" xmlns:xlink="http://www.w3.org/1999/xlink" x="0px" y="0px" width="68px"
	 height="60px" viewBox="0 0 68 60" enable-background="new 0 0 68 60" xml:space="preserve">
<g id="레이어_1">
</g>
<g id="새플">
</g>
<g id="레이어_4">
</g>
<g id="레이어_6">
</g>
<g id="아이콘">
	<g>
		<g>
			<path fill="#FFFFFF" d="M24.358,46.296h7.554c0.133,0,0.228,0.03,0.286,0.091c0.058,0.061,0.086,0.161,0.086,0.301v3.626
				c0,0.149-0.029,0.252-0.086,0.309c-0.058,0.056-0.153,0.084-0.286,0.084h-3.006v1.26h4.722v1.372H22.655v-1.372h4.708v-1.26
				h-3.019c-0.142,0-0.238-0.026-0.286-0.077c-0.049-0.052-0.073-0.152-0.073-0.302v-3.64c0-0.14,0.027-0.24,0.08-0.301
				C24.118,46.326,24.216,46.296,24.358,46.296z M31.886,54.388c0.133,0,0.228,0.03,0.286,0.091s0.086,0.161,0.086,0.301v3.809
				h-1.529v-2.843h-6.85v-1.357H31.886z M30.795,49.418v-1.82h-5.32v1.82H30.795z"/>
			<path fill="#FFFFFF" d="M32.358,58.688h-1.729v-2.843h-6.85v-1.558h8.107c0.161,0,0.281,0.041,0.358,0.122
				c0.077,0.081,0.114,0.202,0.114,0.37V58.688z M30.829,58.488h1.329v-3.708c0-0.111-0.02-0.191-0.059-0.232
				c-0.047-0.049-0.142-0.06-0.213-0.06h-7.907v1.157h6.85V58.488z M33.728,53.438H22.555v-1.572h4.708v-1.06h-2.919
				c-0.172,0-0.289-0.036-0.358-0.108c-0.068-0.072-0.101-0.193-0.101-0.371v-3.64c0-0.167,0.035-0.287,0.105-0.367
				c0.073-0.084,0.193-0.125,0.368-0.125h7.554c0.16,0,0.281,0.041,0.358,0.122c0.077,0.081,0.114,0.202,0.114,0.37v3.626
				c0,0.179-0.038,0.303-0.116,0.38c-0.08,0.076-0.196,0.113-0.356,0.113h-2.906v1.06h4.722V53.438z M22.755,53.238h10.772v-1.172
				h-4.722v-1.46h3.106c0.104,0,0.179-0.02,0.217-0.056c0.021-0.02,0.056-0.078,0.056-0.236v-3.626c0-0.111-0.02-0.191-0.059-0.232
				c-0.038-0.04-0.11-0.06-0.214-0.06h-7.554c-0.108,0-0.186,0.02-0.217,0.057c-0.025,0.029-0.055,0.093-0.055,0.235v3.64
				c0,0.171,0.035,0.222,0.046,0.233c0.01,0.011,0.056,0.046,0.213,0.046h3.119v1.46h-4.708V53.238z M30.895,49.518h-5.52v-2.021
				h5.52V49.518z M25.575,49.318h5.12v-1.62h-5.12V49.318z"/>
		</g>
		<g>
			<path fill="#FFFFFF" d="M34.812,48.466h6.504v1.344h-2.434v0.518c-0.009,0.411,0.051,0.841,0.18,1.288
				c0.128,0.448,0.317,0.878,0.565,1.288c0.239,0.411,0.536,0.789,0.891,1.135c0.354,0.345,0.753,0.62,1.197,0.825l-1.051,1.093
				c-0.629-0.439-1.159-0.905-1.589-1.4s-0.76-1.008-0.991-1.54c-0.239,0.588-0.587,1.155-1.044,1.701
				c-0.457,0.546-1.018,1.057-1.683,1.533l-1.224-1.078c1.038-0.625,1.817-1.345,2.341-2.156c0.523-0.813,0.785-1.708,0.785-2.688
				V49.81h-2.447V48.466z M36.222,46.155h3.684v1.288h-3.684V46.155z M42.526,58.518v-12.53h1.489v4.816h1.623v1.441h-1.623v6.272
				H42.526z"/>
			<path fill="#FFFFFF" d="M44.115,58.618h-1.689v-12.73h1.689v4.816h1.623v1.642h-1.623V58.618z M42.626,58.417h1.289v-6.272h1.623
				v-1.241h-1.623v-4.816h-1.289V58.417z M35.351,56.377l-1.386-1.221l0.117-0.07c1.018-0.613,1.794-1.328,2.309-2.125
				c0.51-0.792,0.769-1.679,0.769-2.634V49.91h-2.447v-1.544h6.704v1.544h-2.434v0.417c-0.009,0.403,0.05,0.826,0.176,1.26
				c0.125,0.438,0.312,0.864,0.555,1.264c0.234,0.402,0.528,0.777,0.875,1.115c0.345,0.336,0.739,0.607,1.169,0.806l0.127,0.059
				l-1.208,1.255l-0.07-0.049c-0.635-0.444-1.176-0.92-1.608-1.417c-0.379-0.437-0.686-0.893-0.912-1.359
				c-0.237,0.522-0.563,1.032-0.97,1.519c-0.46,0.55-1.032,1.071-1.701,1.55L35.351,56.377z M34.301,55.187l1.062,0.936
				c0.627-0.457,1.165-0.951,1.6-1.469c0.448-0.536,0.793-1.099,1.028-1.675l0.09-0.221l0.095,0.219
				c0.225,0.519,0.553,1.029,0.975,1.514c0.405,0.466,0.909,0.915,1.501,1.334l0.896-0.931c-0.402-0.202-0.771-0.465-1.099-0.784
				c-0.36-0.351-0.665-0.74-0.908-1.156c-0.251-0.414-0.445-0.855-0.575-1.311c-0.131-0.454-0.192-0.897-0.184-1.317v-0.616h2.434
				v-1.144h-6.304v1.144h2.447v0.618c0,0.995-0.27,1.917-0.801,2.743C36.047,53.862,35.289,54.573,34.301,55.187z M40.006,47.543
				h-3.884v-1.488h3.884V47.543z M36.322,47.343h3.484v-1.088h-3.484V47.343z"/>
		</g>
	</g>
	<g>
		<path fill="#8B8B8B" d="M49.788,14.578H18.209c-0.926,0-1.68-0.854-1.68-1.905c0-1.05,0.754-1.903,1.68-1.903h31.579
			c0.928,0,1.683,0.854,1.683,1.903C51.471,13.723,50.716,14.578,49.788,14.578z M49.778,12.32l-31.569,0.001
			c-0.019,0.01-0.127,0.126-0.127,0.351c0,0.226,0.109,0.342,0.141,0.354l31.559-0.002c0.042-0.021,0.138-0.148,0.138-0.352
			C49.919,12.464,49.818,12.335,49.778,12.32z"/>
		<path fill="#8B8B8B" d="M49.788,21.345H18.209c-0.926,0-1.68-0.855-1.68-1.906c0-1.05,0.754-1.904,1.68-1.904h31.579
			c0.928,0,1.683,0.854,1.683,1.904C51.471,20.49,50.716,21.345,49.788,21.345z M49.777,19.087l-31.568,0.001
			c-0.019,0.011-0.127,0.126-0.127,0.351c0,0.226,0.109,0.342,0.141,0.355l31.559-0.002c0.042-0.021,0.138-0.148,0.138-0.353
			C49.919,19.23,49.817,19.103,49.777,19.087z"/>
		<path fill="#8B8B8B" d="M49.788,28.111H18.209c-0.926,0-1.68-0.854-1.68-1.905c0-1.05,0.754-1.903,1.68-1.903h31.579
			c0.928,0,1.683,0.854,1.683,1.903C51.471,27.257,50.716,28.111,49.788,28.111z M49.778,25.854l-31.569,0.001
			c-0.019,0.011-0.127,0.126-0.127,0.351c0,0.226,0.109,0.342,0.141,0.354l31.559-0.002c0.042-0.022,0.138-0.149,0.138-0.353
			C49.919,25.997,49.818,25.87,49.778,25.854z"/>
	</g>
</g>
<g id="book">
</g>
</svg>
