<?xml version="1.0" encoding="utf-8"?>
<!-- Generator: Adobe Illustrator 16.0.0, SVG Export Plug-In . SVG Version: 6.00 Build 0)  -->
<!DOCTYPE svg PUBLIC "-//W3C//DTD SVG 1.1//EN" "http://www.w3.org/Graphics/SVG/1.1/DTD/svg11.dtd">
<svg version="1.1" xmlns="http://www.w3.org/2000/svg" xmlns:xlink="http://www.w3.org/1999/xlink" x="0px" y="0px" width="68px"
	 height="60px" viewBox="0 0 68 60" enable-background="new 0 0 68 60" xml:space="preserve">
<g id="레이어_1">
</g>
<g id="새플">
</g>
<g id="레이어_4">
</g>
<g id="레이어_6">
</g>
<g id="아이콘">
	<g>
		<g>
			<path fill="#FFFFFF" d="M16.883,55.647h10.999v1.33H16.883V55.647z M17.774,51.909h1.583l-0.026-4.018h-1.29v-1.33h8.658v1.33
				h-1.317l-0.04,4.018h1.623v1.345h-9.19V51.909z M23.879,47.892h-3.032l0.027,4.018h2.979L23.879,47.892z"/>
			<path fill="#FFFFFF" d="M27.982,57.078H16.783v-1.53h11.199V57.078z M16.983,56.877h10.799v-1.13H16.983V56.877z M27.065,53.354
				h-9.391v-1.545h1.582l-0.025-3.817H17.94v-1.53h8.858v1.53h-1.318l-0.038,3.817h1.622V53.354z M17.875,53.154h8.99v-1.145h-1.624
				l0.042-4.218h1.316v-1.13h-8.458v1.13h1.289l0.001,0.1l0.027,4.118h-1.583V53.154z M23.952,52.009h-3.177l-0.001-0.1
				l-0.027-4.118h3.233L23.952,52.009z M20.973,51.809h2.781l0.025-3.817h-2.831L20.973,51.809z"/>
		</g>
		<g>
			<path fill="#FFFFFF" d="M29.651,49.376h3.87V47.71h-4.243v-1.316h5.347c0.133,0,0.228,0.03,0.286,0.091
				c0.058,0.062,0.086,0.161,0.086,0.301v3.458c0,0.149-0.029,0.252-0.086,0.309c-0.058,0.056-0.153,0.084-0.286,0.084h-3.857v1.609
				h2.075c0.257,0,0.55-0.011,0.878-0.034s0.66-0.054,0.998-0.092c0.337-0.027,0.665-0.064,0.984-0.111
				c0.319-0.047,0.599-0.094,0.838-0.141v1.303c-0.23,0.047-0.51,0.091-0.838,0.133s-0.678,0.077-1.05,0.104
				c-0.381,0.038-0.771,0.07-1.17,0.099c-0.399,0.027-0.785,0.042-1.157,0.042c-0.098,0-0.286,0.002-0.565,0.007
				s-0.574,0.007-0.884,0.007c-0.302,0-0.577,0-0.825,0s-0.381,0-0.399,0c-0.142,0-0.239-0.028-0.292-0.084s-0.08-0.158-0.08-0.308
				v-3.402c0-0.14,0.027-0.24,0.08-0.301S29.509,49.376,29.651,49.376z M30.875,58.279c-0.142,0-0.237-0.027-0.286-0.084
				c-0.049-0.056-0.073-0.158-0.073-0.308V54.5h1.517v2.436h6.743v1.344H30.875z M38.536,45.987v9.296H37.02v-9.296H38.536z"/>
			<path fill="#FFFFFF" d="M38.875,58.379h-8c-0.175,0-0.293-0.039-0.362-0.119c-0.065-0.075-0.098-0.197-0.098-0.373V54.4h1.717
				v2.436h6.743V58.379z M30.616,54.6v3.288c0,0.168,0.034,0.225,0.048,0.242c0.013,0.016,0.06,0.05,0.211,0.05h7.8v-1.144h-6.743
				V54.6H30.616z M38.636,55.383h-1.716v-9.496h1.716V55.383z M37.12,55.183h1.316v-9.096H37.12V55.183z M30.875,53.662h-1.224
				c-0.171,0-0.291-0.038-0.365-0.115c-0.073-0.076-0.108-0.199-0.108-0.377v-3.402c0-0.167,0.035-0.287,0.105-0.367
				c0.074-0.084,0.194-0.125,0.368-0.125h3.77V47.81h-4.243v-1.517h5.447c0.16,0,0.281,0.041,0.358,0.122
				c0.077,0.083,0.114,0.203,0.114,0.37v3.458c0,0.179-0.038,0.303-0.116,0.38c-0.08,0.076-0.196,0.113-0.356,0.113h-3.757v1.409
				h1.975c0.263,0,0.556-0.011,0.871-0.034c0.332-0.024,0.667-0.055,0.994-0.092c0.337-0.027,0.666-0.064,0.98-0.111
				c0.316-0.046,0.597-0.093,0.833-0.14l0.119-0.023v1.506l-0.08,0.017c-0.231,0.047-0.507,0.091-0.845,0.134
				c-0.334,0.043-0.689,0.078-1.056,0.105c-0.361,0.036-0.745,0.068-1.17,0.099c-0.41,0.028-0.801,0.042-1.165,0.042
				c-0.097,0-0.285,0.002-0.563,0.007C31.481,53.66,31.186,53.662,30.875,53.662z M29.651,49.476c-0.108,0-0.185,0.02-0.217,0.057
				c-0.025,0.029-0.055,0.093-0.055,0.235v3.402c0,0.16,0.033,0.218,0.052,0.238c0.019,0.02,0.073,0.053,0.22,0.053h1.224
				c0.31,0,0.604-0.002,0.882-0.007c0.28-0.005,0.469-0.007,0.567-0.007c0.358,0,0.746-0.014,1.15-0.042
				c0.424-0.03,0.806-0.063,1.167-0.099c0.365-0.027,0.717-0.062,1.047-0.104c0.294-0.038,0.542-0.076,0.75-0.116v-1.1
				c-0.213,0.04-0.456,0.079-0.723,0.119c-0.319,0.047-0.652,0.084-0.99,0.112c-0.327,0.037-0.664,0.068-0.999,0.092
				c-0.32,0.023-0.618,0.035-0.885,0.035h-2.175v-1.81h3.957c0.104,0,0.179-0.02,0.217-0.056c0.021-0.02,0.056-0.078,0.056-0.236
				v-3.458c0-0.11-0.021-0.191-0.059-0.232c-0.038-0.039-0.11-0.059-0.213-0.059h-5.247v1.116h4.243v1.866H29.651z"/>
		</g>
		<g>
			<path fill="#FFFFFF" d="M51.077,56.949H40.078v-1.33h10.999V56.949z M41.9,46.506h7.74v1.33h-6.583v1.708h6.544v1.315h-6.544
				v1.681h6.73v1.329h-7.9c-0.142,0-0.237-0.027-0.286-0.084c-0.049-0.056-0.073-0.158-0.073-0.308v-6.58
				c0-0.14,0.026-0.24,0.08-0.301S41.758,46.506,41.9,46.506z"/>
			<path fill="#FFFFFF" d="M51.177,57.049H39.978v-1.53h11.199V57.049z M40.178,56.849h10.799v-1.13H40.178V56.849z M49.887,53.969
				h-8c-0.175,0-0.293-0.039-0.362-0.119c-0.065-0.074-0.097-0.196-0.097-0.373v-6.58c0-0.167,0.034-0.287,0.104-0.367
				c0.074-0.084,0.194-0.125,0.368-0.125h7.84v1.53h-6.583v1.508h6.544v1.516h-6.544v1.48h6.73V53.969z M41.9,46.606
				c-0.108,0-0.186,0.02-0.218,0.057c-0.025,0.028-0.055,0.092-0.055,0.235v6.58c0,0.168,0.034,0.225,0.048,0.242
				c0.013,0.016,0.059,0.05,0.21,0.05h7.8V52.64h-6.73v-1.881h6.544v-1.115h-6.544v-1.908h6.583v-1.13H41.9z"/>
		</g>
	</g>
	<g>
		<g>
			<path fill="#8B8B8B" d="M43.178,17.874H24.403c-0.528,0-0.925-0.557-0.925-1.295c0-0.737,0.397-1.293,0.925-1.293h18.775
				c0.53,0,0.928,0.556,0.928,1.293C44.106,17.317,43.708,17.874,43.178,17.874z M43.158,16.058l-18.755,0.003
				c-0.029,0.021-0.149,0.207-0.149,0.517c0,0.312,0.12,0.498,0.169,0.522l18.742-0.004c0.053-0.035,0.166-0.218,0.166-0.519
				C43.33,16.267,43.209,16.082,43.158,16.058z"/>
			<path fill="#8B8B8B" d="M43.178,21.756H24.403c-0.528,0-0.925-0.557-0.925-1.295s0.397-1.294,0.925-1.294h18.775
				c0.53,0,0.928,0.556,0.928,1.294S43.708,21.756,43.178,21.756z M43.158,19.94l-18.755,0.004
				c-0.029,0.021-0.149,0.206-0.149,0.517c0,0.312,0.12,0.498,0.169,0.522l18.742-0.004c0.053-0.036,0.166-0.219,0.166-0.519
				C43.33,20.149,43.209,19.965,43.158,19.94z"/>
			<path fill="#8B8B8B" d="M43.178,25.639H24.403c-0.528,0-0.925-0.557-0.925-1.295c0-0.738,0.397-1.293,0.925-1.293h18.775
				c0.53,0,0.928,0.556,0.928,1.293C44.106,25.082,43.708,25.639,43.178,25.639z M43.158,23.822l-18.755,0.004
				c-0.029,0.021-0.149,0.206-0.149,0.517c0,0.312,0.12,0.498,0.169,0.522l18.742-0.003c0.053-0.036,0.166-0.219,0.166-0.519
				C43.33,24.032,43.209,23.848,43.158,23.822z"/>
		</g>
		<path fill="#8B8B8B" d="M46.994,36.345H21.242c-0.429,0-0.777-0.347-0.777-0.777V10.362c0-0.428,0.348-0.776,0.777-0.776
			s0.776,0.348,0.776,0.776v24.43h24.199V4.638H28.302c-0.429,0-0.777-0.347-0.777-0.776s0.348-0.777,0.777-0.777h18.692
			c0.429,0,0.776,0.348,0.776,0.777v31.707C47.771,35.998,47.423,36.345,46.994,36.345z"/>
		<path fill="#8B8B8B" d="M20.97,11.036c-0.305,0-0.578-0.187-0.689-0.47c-0.113-0.284-0.038-0.608,0.187-0.815l7.19-6.628
			c0.216-0.199,0.533-0.253,0.8-0.133c0.27,0.118,0.443,0.385,0.443,0.679l-0.015,6.605c0,0.407-0.331,0.737-0.738,0.738
			l-7.175,0.024H20.97z M27.416,5.361l-4.542,4.187l4.533-0.015L27.416,5.361z"/>
	</g>
</g>
<g id="book">
</g>
</svg>
