<?xml version="1.0" encoding="utf-8"?>
<!-- Generator: Adobe Illustrator 19.1.0, SVG Export Plug-In . SVG Version: 6.00 Build 0)  -->
<svg version="1.1" id="Layer_1" xmlns="http://www.w3.org/2000/svg" xmlns:xlink="http://www.w3.org/1999/xlink" x="0px" y="0px"
	 viewBox="-271 367 68 60" enable-background="new -271 367 68 60" xml:space="preserve">
<g id="레이어_1">
</g>
<g id="새플">
</g>
<g id="레이어_4">
</g>
<g id="레이어_6">
</g>
<g id="book">
</g>
<path fill="#8B8B8B" d="M-222.985,402.979c-0.001,0-0.001,0-0.001,0c-0.467,0-0.885-0.153-1.208-0.442l-9.795-8.744
	c-2.119,1.41-4.563,2.151-7.105,2.151c-7.102,0-12.879-5.778-12.879-12.88c0-7.101,5.777-12.878,12.879-12.878
	c7.101,0,12.879,5.777,12.879,12.878c0,2.455-0.692,4.823-2.008,6.891l9.606,8.573c0.871,0.78,0.769,2.269-0.232,3.392
	C-221.444,402.584-222.241,402.979-222.985,402.979z M-233.933,392.056c0.183,0,0.366,0.066,0.51,0.194l10.246,9.146
	c0.05,0.044,0.131,0.053,0.192,0.053l0,0c0.233,0,0.632-0.143,0.994-0.548c0.475-0.533,0.5-1.101,0.353-1.232l-10.103-9.017
	c-0.29-0.259-0.339-0.696-0.114-1.013c1.381-1.937,2.11-4.21,2.11-6.573c0-6.258-5.091-11.348-11.35-11.348
	c-6.257,0-11.35,5.09-11.35,11.348c0,6.259,5.092,11.351,11.35,11.351c2.421,0,4.741-0.766,6.708-2.212
	C-234.25,392.106-234.091,392.056-233.933,392.056z M-241.095,392.295c-5.089,0-9.23-4.142-9.23-9.23c0-5.089,4.141-9.23,9.23-9.23
	s9.23,4.141,9.23,9.23C-231.865,388.154-236.005,392.295-241.095,392.295z M-241.095,375.364c-4.246,0-7.701,3.455-7.701,7.701
	c0,4.246,3.455,7.701,7.701,7.701s7.7-3.455,7.7-7.701C-233.394,378.819-236.848,375.364-241.095,375.364z"/>
<g>
	<path fill="#FFFFFF" stroke="#FFFFFF" stroke-width="0.2" stroke-miterlimit="10" d="M-241.954,413.522
		c0.133,0,0.228,0.029,0.286,0.09c0.057,0.062,0.086,0.161,0.086,0.302c-0.151,1.456-0.652,2.718-1.503,3.787
		c-0.852,1.068-2.124,1.896-3.817,2.484l-0.931-1.147c1.303-0.383,2.334-0.922,3.092-1.617c0.758-0.695,1.248-1.547,1.47-2.555
		h-3.857v-1.344H-241.954z M-245.519,420.592h7.235c0.133,0,0.228,0.03,0.286,0.091c0.058,0.062,0.086,0.161,0.086,0.301v4.032
		c0,0.149-0.029,0.252-0.086,0.309c-0.058,0.056-0.153,0.084-0.286,0.084h-7.235c-0.142,0-0.239-0.028-0.292-0.084
		c-0.053-0.057-0.08-0.159-0.08-0.309v-4.032c0-0.14,0.027-0.239,0.08-0.301C-245.758,420.622-245.661,420.592-245.519,420.592z
		 M-239.401,424.12v-2.227h-5.001v2.227H-239.401z M-237.898,413.004v7.098h-1.49v-2.688h-2.407v-1.358h2.407v-3.052H-237.898z"/>
	<path fill="#FFFFFF" stroke="#FFFFFF" stroke-width="0.2" stroke-miterlimit="10" d="M-231.367,419.738
		c-0.452-0.29-0.869-0.653-1.25-1.093c-0.381-0.438-0.665-0.849-0.851-1.231c-0.089,0.215-0.206,0.445-0.353,0.692
		c-0.146,0.248-0.317,0.493-0.512,0.735c-0.187,0.243-0.391,0.477-0.612,0.7c-0.222,0.224-0.448,0.42-0.678,0.588l-1.197-1.022
		c0.825-0.513,1.454-1.149,1.889-1.91c0.434-0.761,0.652-1.659,0.652-2.695v-1.162h1.569v1.162
		c-0.009,0.934,0.184,1.752,0.579,2.457c0.394,0.705,0.973,1.271,1.735,1.701L-231.367,419.738z M-226.54,421.068
		c0.133,0,0.229,0.03,0.286,0.091s0.086,0.161,0.086,0.301v4.158h-1.503v-3.221h-6.823v-1.329H-226.54z M-228.655,413.228v2.575
		h1.011v-2.785h1.463v7.518h-1.463v-3.263h-1.011v3.263h-1.463v-7.308H-228.655z"/>
</g>
</svg>
