<?xml version="1.0" encoding="utf-8"?>
<!-- Generator: Adobe Illustrator 16.0.0, SVG Export Plug-In . SVG Version: 6.00 Build 0)  -->
<!DOCTYPE svg PUBLIC "-//W3C//DTD SVG 1.1//EN" "http://www.w3.org/Graphics/SVG/1.1/DTD/svg11.dtd">
<svg version="1.1" xmlns="http://www.w3.org/2000/svg" xmlns:xlink="http://www.w3.org/1999/xlink" x="0px" y="0px" width="68px"
	 height="60px" viewBox="0 0 68 60" enable-background="new 0 0 68 60" xml:space="preserve">
<g id="레이어_1">
</g>
<g id="새플">
</g>
<g id="레이어_4">
</g>
<g id="레이어_6">
</g>
<g id="아이콘">
	<g>
		<g>
			<path fill="#FFFFFF" d="M10.804,55.144c1.055-0.672,1.862-1.5,2.42-2.485c0.559-0.984,0.838-2.182,0.838-3.591v-1.021h-2.38
				v-1.316h6.424v1.316h-2.447v1.092c0,1.288,0.257,2.403,0.771,3.346c0.514,0.943,1.277,1.718,2.288,2.324l-1.077,1.078
				c-0.568-0.383-1.109-0.866-1.623-1.449s-0.9-1.192-1.157-1.827c-0.213,0.645-0.579,1.288-1.097,1.933
				c-0.519,0.644-1.084,1.194-1.696,1.651L10.804,55.144z M20.806,45.974v4.732h1.649v1.413h-1.649v6.398h-1.503V45.974H20.806z"/>
			<path fill="#FFFFFF" d="M20.906,58.618h-1.703V45.874h1.703v4.732h1.649v1.613h-1.649V58.618z M19.403,58.417h1.303v-6.398h1.649
				v-1.213h-1.649v-4.732h-1.303V58.417z M12.064,56.321l-1.43-1.188l0.116-0.074c1.036-0.66,1.839-1.484,2.387-2.45
				c0.547-0.964,0.825-2.156,0.825-3.542v-0.921h-2.38v-1.517h6.624v1.517h-2.447v0.992c0,1.266,0.255,2.375,0.759,3.298
				c0.503,0.922,1.26,1.692,2.251,2.286l0.11,0.066l-1.226,1.227l-0.068-0.046c-0.572-0.385-1.125-0.878-1.643-1.466
				c-0.456-0.517-0.816-1.061-1.073-1.621c-0.223,0.573-0.568,1.152-1.027,1.723c-0.523,0.649-1.1,1.21-1.714,1.669L12.064,56.321z
				 M10.973,55.153l1.098,0.913c0.578-0.44,1.121-0.974,1.615-1.587c0.509-0.632,0.872-1.272,1.08-1.901l0.085-0.259l0.102,0.252
				c0.251,0.622,0.635,1.227,1.139,1.799c0.486,0.551,1.002,1.017,1.536,1.386l0.929-0.93c-0.969-0.604-1.713-1.375-2.215-2.295
				c-0.52-0.952-0.784-2.094-0.784-3.394v-1.192h2.447V46.83h-6.224v1.116h2.38v1.122c0,1.42-0.287,2.645-0.851,3.64
				C12.768,53.666,11.981,54.489,10.973,55.153z"/>
		</g>
		<g>
			<path fill="#FFFFFF" d="M24.437,46.296h7.874v1.33h-6.717v1.483h6.836v1.316h-3.458v1.386h4.695v1.33H22.694v-1.33h4.682v-1.386
				h-2.953c-0.142,0-0.237-0.028-0.286-0.084c-0.049-0.057-0.073-0.159-0.073-0.309v-3.346c0-0.14,0.026-0.24,0.08-0.301
				S24.295,46.296,24.437,46.296z M28.174,53.911c1.428,0,2.521,0.223,3.279,0.665c0.758,0.443,1.137,1.029,1.137,1.758
				c0,0.736-0.377,1.325-1.131,1.764c-0.753,0.438-1.849,0.658-3.285,0.658c-1.445,0-2.542-0.22-3.292-0.658
				c-0.75-0.438-1.124-1.027-1.124-1.764c0-0.729,0.377-1.314,1.131-1.758C25.643,54.134,26.738,53.911,28.174,53.911z
				 M28.174,55.115c-0.842,0-1.507,0.104-1.995,0.309c-0.488,0.205-0.731,0.504-0.731,0.896c0,0.42,0.244,0.726,0.731,0.917
				c0.487,0.191,1.152,0.287,1.995,0.287c0.833,0,1.497-0.096,1.989-0.287c0.492-0.191,0.738-0.497,0.738-0.917
				c0-0.392-0.246-0.69-0.738-0.896C29.67,55.219,29.007,55.115,28.174,55.115z"/>
			<path fill="#FFFFFF" d="M28.174,58.856c-1.456,0-2.581-0.226-3.342-0.672c-0.779-0.456-1.174-1.078-1.174-1.85
				c0-0.763,0.397-1.383,1.18-1.844c0.767-0.45,1.89-0.679,3.335-0.679c1.437,0,2.557,0.229,3.329,0.679
				c0.788,0.461,1.187,1.081,1.187,1.844c0,0.772-0.397,1.395-1.181,1.85C30.743,58.63,29.621,58.856,28.174,58.856z M28.174,54.011
				c-1.41,0-2.498,0.219-3.234,0.651c-0.728,0.428-1.082,0.975-1.082,1.671c0,0.706,0.352,1.254,1.074,1.677
				c0.731,0.428,1.821,0.645,3.241,0.645c1.412,0,2.5-0.217,3.235-0.645c0.728-0.423,1.081-0.972,1.081-1.677
				c0-0.697-0.355-1.243-1.087-1.671C30.661,54.23,29.575,54.011,28.174,54.011z M28.174,57.624c-0.851,0-1.535-0.099-2.031-0.294
				c-0.527-0.207-0.795-0.547-0.795-1.01c0-0.434,0.267-0.767,0.793-0.988c0.499-0.21,1.183-0.316,2.033-0.316
				c0.841,0,1.523,0.106,2.027,0.316C30.731,55.553,31,55.885,31,56.319c0,0.463-0.27,0.803-0.802,1.01
				C29.697,57.524,29.016,57.624,28.174,57.624z M28.174,55.215c-0.824,0-1.481,0.101-1.956,0.301
				c-0.451,0.189-0.67,0.452-0.67,0.803c0,0.378,0.218,0.647,0.668,0.824c0.473,0.186,1.132,0.28,1.958,0.28
				c0.817,0,1.474-0.094,1.953-0.28c0.454-0.176,0.674-0.446,0.674-0.824c0-0.351-0.221-0.613-0.676-0.803
				C29.645,55.316,28.989,55.215,28.174,55.215z M33.767,53.242H22.594v-1.53h4.682v-1.186h-2.853c-0.174,0-0.292-0.039-0.361-0.119
				c-0.065-0.076-0.098-0.199-0.098-0.374v-3.346c0-0.167,0.034-0.287,0.104-0.367c0.074-0.084,0.194-0.125,0.368-0.125h7.974v1.53
				h-6.717v1.283h6.836v1.517h-3.458v1.186h4.695V53.242z M22.794,53.042h10.772v-1.13h-4.695v-1.586h3.458v-1.116h-6.836v-1.684
				h6.717v-1.13h-7.774c-0.108,0-0.185,0.02-0.217,0.057c-0.025,0.028-0.055,0.092-0.055,0.235v3.346
				c0,0.162,0.031,0.222,0.049,0.243c0.013,0.015,0.059,0.049,0.21,0.049h3.053v1.586h-4.682V53.042z"/>
		</g>
		<g>
			<path fill="#FFFFFF" d="M35.123,51.979c-0.049-0.056-0.073-0.158-0.073-0.308v-5.376h1.49v4.368l1.623-0.015
				c0.266,0,0.563-0.014,0.891-0.042c0.328-0.027,0.656-0.061,0.984-0.098c0.337-0.047,0.654-0.094,0.951-0.141
				c0.297-0.046,0.552-0.098,0.765-0.153v1.357c-0.195,0.057-0.43,0.11-0.705,0.161c-0.275,0.052-0.576,0.101-0.904,0.147
				c-0.337,0.047-0.687,0.086-1.051,0.119c-0.363,0.032-0.723,0.049-1.077,0.049c-0.089,0.009-0.275,0.014-0.559,0.014
				s-0.577,0-0.878,0s-0.691,0-1.17,0C35.267,52.063,35.171,52.035,35.123,51.979z M36.632,53.478h7.249
				c0.133,0,0.228,0.03,0.286,0.091c0.058,0.062,0.086,0.161,0.086,0.301v4.116c0,0.149-0.029,0.252-0.086,0.309
				c-0.058,0.056-0.153,0.084-0.286,0.084h-7.249c-0.142,0-0.239-0.028-0.292-0.084c-0.053-0.057-0.08-0.159-0.08-0.309v-4.116
				c0-0.14,0.026-0.239,0.08-0.301C36.393,53.508,36.491,53.478,36.632,53.478z M42.764,57.09v-2.311H37.75v2.311H42.764z
				 M44.253,45.987v7.015H42.75v-3.935h-3.112v-1.33h3.112v-1.75H44.253z"/>
			<path fill="#FFFFFF" d="M43.881,58.478h-7.249c-0.171,0-0.291-0.038-0.365-0.115c-0.072-0.077-0.107-0.201-0.107-0.378v-4.116
				c0-0.166,0.034-0.285,0.104-0.366c0.074-0.084,0.195-0.125,0.368-0.125h7.249c0.16,0,0.281,0.041,0.358,0.122
				c0.077,0.083,0.114,0.203,0.114,0.37v4.116c0,0.179-0.038,0.303-0.116,0.38C44.158,58.441,44.042,58.478,43.881,58.478z
				 M36.632,53.578c-0.108,0-0.185,0.02-0.217,0.057c-0.036,0.042-0.055,0.123-0.055,0.235v4.116c0,0.16,0.033,0.219,0.052,0.24
				c0.019,0.019,0.072,0.052,0.22,0.052h7.249c0.104,0,0.179-0.02,0.217-0.056c0.021-0.02,0.056-0.078,0.056-0.236v-4.116
				c0-0.11-0.021-0.191-0.059-0.232c-0.038-0.039-0.11-0.059-0.213-0.059H36.632z M42.864,57.19h-5.214v-2.511h5.214V57.19z
				 M37.85,56.99h4.814v-2.11H37.85V56.99z M44.354,53.102H42.65v-3.935h-3.112v-1.53h3.112v-1.75h1.703V53.102z M42.851,52.902
				h1.303v-6.814h-1.303v1.75h-3.112v1.13h3.112V52.902z M37.457,52.164h-2.048c-0.174,0-0.292-0.039-0.361-0.119
				c-0.065-0.075-0.098-0.197-0.098-0.373v-5.476h1.69v4.367l1.521-0.014c0.267,0,0.563-0.014,0.883-0.042
				c0.327-0.027,0.654-0.061,0.981-0.098c0.333-0.046,0.65-0.093,0.947-0.14c0.287-0.044,0.54-0.095,0.755-0.151l0.125-0.033v1.562
				l-0.072,0.021c-0.198,0.057-0.438,0.112-0.715,0.163c-0.271,0.051-0.569,0.1-0.908,0.148c-0.329,0.045-0.674,0.085-1.056,0.12
				c-0.369,0.033-0.734,0.049-1.086,0.049C37.931,52.159,37.739,52.164,37.457,52.164z M35.15,46.396v5.276
				c0,0.168,0.034,0.225,0.048,0.242c0.013,0.015,0.06,0.05,0.21,0.05h2.048c0.343,0,0.488-0.007,0.549-0.013
				c0.356,0,0.716-0.017,1.078-0.049c0.378-0.035,0.721-0.073,1.046-0.119c0.336-0.048,0.63-0.096,0.899-0.146
				c0.237-0.044,0.446-0.09,0.624-0.139v-1.154c-0.192,0.045-0.41,0.087-0.649,0.124c-0.297,0.047-0.615,0.094-0.953,0.141
				c-0.332,0.038-0.661,0.071-0.989,0.098c-0.325,0.028-0.628,0.042-0.899,0.042l-1.723,0.016v-4.369H35.15z"/>
		</g>
		<g>
			<path fill="#FFFFFF" d="M52.14,46.491c0.133,0,0.229,0.031,0.286,0.092s0.086,0.16,0.086,0.301
				c-0.151,1.456-0.652,2.718-1.503,3.787c-0.851,1.068-2.124,1.896-3.817,2.484l-0.931-1.147c1.303-0.383,2.334-0.922,3.092-1.617
				c0.758-0.695,1.248-1.547,1.47-2.555h-3.91v-1.345H52.14z M48.549,53.562h7.168c0.133,0,0.229,0.03,0.286,0.091
				c0.058,0.062,0.086,0.161,0.086,0.301v4.032c0,0.149-0.029,0.252-0.086,0.309c-0.058,0.056-0.153,0.084-0.286,0.084h-7.168
				c-0.142,0-0.239-0.028-0.292-0.084c-0.053-0.057-0.08-0.159-0.08-0.309v-4.032c0-0.14,0.027-0.239,0.08-0.301
				C48.31,53.592,48.407,53.562,48.549,53.562z M54.601,57.09v-2.227h-4.934v2.227H54.601z M56.117,45.987v7.084h-1.49v-7.084
				H56.117z"/>
			<path fill="#FFFFFF" d="M55.718,58.478h-7.168c-0.171,0-0.291-0.038-0.365-0.115c-0.073-0.078-0.108-0.201-0.108-0.378v-4.032
				c0-0.165,0.034-0.285,0.104-0.366c0.074-0.084,0.195-0.125,0.368-0.125h7.168c0.161,0,0.282,0.041,0.358,0.122
				c0.077,0.082,0.114,0.203,0.114,0.37v4.032c0,0.179-0.038,0.303-0.116,0.38C55.997,58.44,55.877,58.478,55.718,58.478z
				 M48.549,53.662c-0.108,0-0.185,0.02-0.217,0.057c-0.036,0.042-0.055,0.123-0.055,0.235v4.032c0,0.16,0.033,0.219,0.053,0.24
				c0.019,0.019,0.072,0.052,0.22,0.052h7.168c0.104,0,0.179-0.019,0.217-0.056c0.021-0.021,0.056-0.079,0.056-0.237v-4.032
				c0-0.11-0.021-0.191-0.059-0.232c-0.047-0.049-0.142-0.059-0.213-0.059H48.549z M54.701,57.19h-5.134v-2.427h5.134V57.19z
				 M49.767,56.99H54.5v-2.026h-4.734V56.99z M47.159,53.273l-1.07-1.319l0.144-0.042c1.283-0.377,2.31-0.914,3.053-1.595
				c0.708-0.65,1.183-1.451,1.411-2.381h-3.884v-1.545h5.327c0.16,0,0.281,0.042,0.358,0.123c0.077,0.081,0.114,0.202,0.114,0.37
				c-0.153,1.478-0.666,2.77-1.525,3.85c-0.859,1.078-2.158,1.925-3.862,2.516L47.159,53.273z M46.434,52.061l0.792,0.977
				c1.635-0.578,2.881-1.395,3.706-2.429c0.835-1.049,1.333-2.306,1.481-3.735c0-0.101-0.021-0.181-0.059-0.222
				c-0.038-0.04-0.112-0.061-0.214-0.061h-5.126v1.145h3.935l-0.027,0.122c-0.225,1.023-0.729,1.9-1.5,2.607
				C48.684,51.141,47.679,51.678,46.434,52.061z M56.217,53.171h-1.69v-7.284h1.69V53.171z M54.728,52.971h1.29v-6.884h-1.29V52.971
				z"/>
		</g>
	</g>
	<path fill="#8B8B8B" d="M34,36.07c-9.17,0-16.63-7.459-16.63-16.628c0-9.17,7.46-16.631,16.63-16.631
		c4.117,0,9.374,3.142,9.597,3.275c0.315,0.191,0.839,0.123,1.097-0.141l2.098-2.154c0.666-0.682,1.271-0.554,1.501-0.464
		c0.23,0.087,0.77,0.395,0.811,1.345l0.367,8.311c0.025,0.565-0.174,1.098-0.562,1.503c-0.387,0.404-0.911,0.627-1.477,0.627h-8.688
		c-0.96,0-1.283-0.527-1.376-0.753c-0.093-0.226-0.239-0.827,0.439-1.506l2.702-2.703c0.073-0.073,0.11-0.148,0.103-0.206
		c-0.007-0.057-0.063-0.12-0.152-0.172C40.423,9.752,36.789,7.664,34,7.664c-6.494,0-11.776,5.284-11.776,11.778
		c0,6.492,5.282,11.775,11.776,11.775s11.776-5.283,11.776-11.775c0-0.429,0.347-0.776,0.777-0.776c0.428,0,0.776,0.347,0.776,0.776
		c0,7.348-5.979,13.328-13.33,13.328S20.67,26.79,20.67,19.442c0-7.351,5.979-13.331,13.33-13.331c3.21,0,7.077,2.225,7.24,2.32
		c0.509,0.296,0.841,0.774,0.912,1.313s-0.128,1.087-0.544,1.504l-2.298,2.299l8.122,0.012c0.137,0,0.264-0.052,0.355-0.148
		c0.091-0.096,0.138-0.224,0.132-0.361l-0.346-7.823l-1.768,1.8c-0.758,0.777-2.08,0.947-3.011,0.387
		C42.744,7.386,37.684,4.364,34,4.364c-8.313,0-15.077,6.764-15.077,15.078c0,8.313,6.764,15.075,15.077,15.075
		s15.077-6.763,15.077-15.075c0-0.429,0.347-0.776,0.776-0.776s0.777,0.347,0.777,0.776C50.63,28.61,43.17,36.07,34,36.07z"/>
</g>
<g id="book">
</g>
</svg>
