<?xml version="1.0" encoding="utf-8"?>
<!-- Generator: Adobe Illustrator 16.0.0, SVG Export Plug-In . SVG Version: 6.00 Build 0)  -->
<!DOCTYPE svg PUBLIC "-//W3C//DTD SVG 1.1//EN" "http://www.w3.org/Graphics/SVG/1.1/DTD/svg11.dtd">
<svg version="1.1" xmlns="http://www.w3.org/2000/svg" xmlns:xlink="http://www.w3.org/1999/xlink" x="0px" y="0px" width="68px"
	 height="60px" viewBox="0 0 68 60" enable-background="new 0 0 68 60" xml:space="preserve">
<g id="레이어_1">
</g>
<g id="새플">
</g>
<g id="레이어_4">
</g>
<g id="레이어_6">
</g>
<g id="아이콘">
	<g>
		<g>
			<path fill="#FFFFFF" d="M16.571,51.867c0.354-0.279,0.663-0.562,0.924-0.847c0.261-0.284,0.477-0.595,0.645-0.931
				c0.168-0.327,0.294-0.695,0.379-1.106c0.084-0.41,0.126-0.887,0.126-1.428v-1.26h1.476c0,0.111-0.002,0.222-0.006,0.329
				c-0.005,0.107-0.007,0.217-0.007,0.328c0,0.104,0,0.208,0,0.315s0,0.213,0,0.315c0,0.84,0.086,1.514,0.259,2.022
				s0.406,0.936,0.698,1.281c0.319-0.401,0.55-0.856,0.692-1.365c0.142-0.509,0.213-1.159,0.213-1.953v-1.273h1.476v1.273
				c0,1.008,0.16,1.834,0.479,2.479c0.319,0.644,0.771,1.167,1.356,1.567l-1.024,0.98c-0.266-0.196-0.548-0.472-0.845-0.826
				c-0.297-0.354-0.534-0.732-0.711-1.134c-0.142,0.392-0.361,0.772-0.659,1.141c-0.297,0.369-0.627,0.707-0.991,1.016
				c-0.346-0.299-0.663-0.631-0.951-0.994c-0.289-0.364-0.53-0.742-0.725-1.134c-0.053,0.177-0.138,0.361-0.252,0.553
				c-0.116,0.191-0.249,0.38-0.399,0.566c-0.151,0.188-0.313,0.369-0.485,0.547c-0.173,0.177-0.339,0.331-0.499,0.462L16.571,51.867
				z M19.55,53.813h7.302c0.133,0,0.228,0.03,0.286,0.091c0.058,0.062,0.086,0.161,0.086,0.302v3.779
				c0,0.149-0.029,0.252-0.086,0.309c-0.058,0.056-0.153,0.084-0.286,0.084H19.55c-0.142,0-0.239-0.028-0.292-0.084
				c-0.053-0.057-0.08-0.159-0.08-0.309v-3.779c0-0.141,0.026-0.24,0.08-0.302C19.311,53.844,19.409,53.813,19.55,53.813z
				 M25.722,57.09v-1.96h-5.054v1.96H25.722z M24.086,48.031h1.689v-2.044h1.45v7.294h-1.45v-3.878h-1.689V48.031z"/>
			<path fill="#FFFFFF" d="M26.852,58.478H19.55c-0.171,0-0.291-0.038-0.365-0.115c-0.072-0.077-0.107-0.201-0.107-0.378v-3.779
				c0-0.166,0.034-0.286,0.104-0.367c0.074-0.084,0.195-0.125,0.368-0.125h7.302c0.16,0,0.281,0.041,0.358,0.122
				c0.077,0.083,0.114,0.204,0.114,0.371v3.779c0,0.179-0.038,0.303-0.116,0.38C27.13,58.44,27.01,58.478,26.852,58.478z
				 M19.55,53.914c-0.108,0-0.185,0.02-0.217,0.057c-0.036,0.042-0.055,0.123-0.055,0.236v3.779c0,0.16,0.033,0.219,0.052,0.24
				c0.019,0.019,0.072,0.052,0.22,0.052h7.302c0.104,0,0.179-0.02,0.217-0.056c0.021-0.02,0.056-0.078,0.056-0.236v-3.779
				c0-0.111-0.021-0.192-0.059-0.233c-0.047-0.049-0.142-0.059-0.213-0.059H19.55z M25.822,57.19h-5.254v-2.16h5.254V57.19z
				 M20.768,56.99h4.854v-1.76h-4.854V56.99z M27.325,53.381h-1.65v-3.878h-1.689v-1.572h1.689v-2.044h1.65V53.381z M25.875,53.181
				h1.25v-7.094h-1.25v2.044h-1.689v1.172h1.689V53.181z M21.053,52.924l-0.065-0.056c-0.349-0.301-0.673-0.641-0.964-1.008
				c-0.241-0.305-0.453-0.623-0.63-0.948c-0.049,0.116-0.11,0.235-0.183,0.356c-0.118,0.195-0.255,0.39-0.408,0.578
				c-0.149,0.186-0.315,0.373-0.491,0.554c-0.177,0.181-0.348,0.339-0.507,0.469l-0.063,0.051l-1.333-1.053l0.1-0.079
				c0.349-0.274,0.656-0.556,0.913-0.835c0.254-0.277,0.466-0.582,0.629-0.908c0.164-0.318,0.288-0.682,0.37-1.082
				c0.083-0.401,0.125-0.875,0.125-1.408v-1.36h1.676v0.1c0,0.113-0.002,0.225-0.006,0.333c-0.005,0.106-0.007,0.214-0.007,0.324
				v0.631c0,0.825,0.085,1.494,0.254,1.99c0.152,0.447,0.354,0.834,0.602,1.152c0.271-0.365,0.471-0.779,0.598-1.231
				c0.139-0.499,0.209-1.147,0.209-1.926v-1.374h1.676v1.374c0,0.988,0.158,1.807,0.469,2.434c0.31,0.626,0.755,1.141,1.323,1.529
				l0.102,0.069l-1.174,1.124l-0.068-0.05c-0.271-0.201-0.562-0.484-0.862-0.843c-0.25-0.297-0.46-0.615-0.627-0.948
				c-0.143,0.327-0.34,0.647-0.588,0.954c-0.298,0.371-0.636,0.717-1.004,1.029L21.053,52.924z M16.732,51.867l1.008,0.796
				c0.136-0.115,0.28-0.25,0.429-0.403c0.171-0.177,0.333-0.358,0.479-0.54c0.147-0.182,0.279-0.369,0.392-0.556
				c0.11-0.184,0.192-0.362,0.242-0.53l0.073-0.242l0.112,0.226c0.191,0.383,0.431,0.759,0.714,1.116
				c0.265,0.334,0.558,0.645,0.873,0.924c0.333-0.289,0.64-0.607,0.912-0.946c0.288-0.357,0.504-0.731,0.643-1.112l0.085-0.234
				l0.101,0.228c0.173,0.392,0.408,0.765,0.697,1.11c0.265,0.317,0.521,0.572,0.761,0.759l0.875-0.837
				c-0.549-0.399-0.982-0.915-1.29-1.535c-0.325-0.655-0.489-1.504-0.489-2.523v-1.173h-1.276v1.173c0,0.797-0.073,1.463-0.217,1.98
				c-0.145,0.52-0.384,0.991-0.71,1.401l-0.076,0.095l-0.079-0.093c-0.3-0.354-0.541-0.796-0.717-1.313
				c-0.175-0.517-0.265-1.208-0.265-2.055v-0.631c0-0.113,0.002-0.224,0.007-0.333c0.003-0.074,0.005-0.149,0.006-0.225h-1.275v1.16
				c0,0.547-0.043,1.034-0.128,1.448c-0.086,0.418-0.217,0.799-0.388,1.132c-0.171,0.342-0.394,0.663-0.66,0.953
				C17.33,51.349,17.049,51.61,16.732,51.867z"/>
		</g>
		<g>
			<path fill="#FFFFFF" d="M29.845,55.451c-0.142,0-0.237-0.027-0.286-0.084c-0.049-0.056-0.073-0.158-0.073-0.308v-8.498h1.517
				v7.477l0.997-0.028c0.125,0,0.286-0.01,0.486-0.028c0.199-0.019,0.405-0.037,0.618-0.056c0.213-0.028,0.421-0.059,0.625-0.091
				c0.204-0.033,0.373-0.063,0.506-0.092v1.358c-0.116,0.028-0.279,0.061-0.492,0.098c-0.213,0.038-0.452,0.075-0.718,0.112
				c-0.257,0.028-0.523,0.054-0.798,0.077c-0.275,0.023-0.528,0.035-0.758,0.035c-0.08,0.009-0.208,0.017-0.386,0.021
				c-0.177,0.005-0.354,0.007-0.532,0.007c-0.177,0.01-0.337,0.015-0.479,0.015C29.929,55.466,29.854,55.461,29.845,55.451z
				 M36.282,46.197V57.93h-1.463v-6.79h-2.115v-1.428h2.115v-3.515H36.282z M38.742,45.987v12.53h-1.45v-12.53H38.742z"/>
			<path fill="#FFFFFF" d="M38.842,58.618h-1.65v-12.73h1.65V58.618z M37.393,58.417h1.25v-12.33h-1.25V58.417z M36.382,58.03
				h-1.663v-6.79h-2.115v-1.628h2.115v-3.515h1.663V58.03z M34.919,57.83h1.263V46.297h-1.263v3.515h-2.115v1.228h2.115V57.83z
				 M30.071,55.566c-0.138,0-0.207-0.003-0.247-0.015c-0.164-0.003-0.275-0.042-0.341-0.118c-0.065-0.075-0.098-0.197-0.098-0.373
				v-8.598h1.717v7.474l0.894-0.025c0.122,0,0.277-0.009,0.479-0.028c0.199-0.019,0.406-0.037,0.619-0.056
				c0.208-0.028,0.416-0.058,0.618-0.09c0.202-0.033,0.369-0.063,0.5-0.091l0.121-0.026v1.561l-0.076,0.019
				c-0.116,0.028-0.279,0.061-0.499,0.099c-0.213,0.038-0.454,0.075-0.722,0.113c-0.261,0.029-0.528,0.054-0.803,0.078
				c-0.277,0.023-0.535,0.036-0.767,0.036c-0.081,0.009-0.217,0.017-0.384,0.021c-0.177,0.005-0.355,0.007-0.534,0.007
				C30.375,55.561,30.214,55.566,30.071,55.566z M29.898,55.361c0.023,0.002,0.072,0.004,0.172,0.004
				c0.14,0,0.298-0.005,0.473-0.014c0.182,0,0.358-0.002,0.535-0.007c0.159-0.003,0.293-0.01,0.378-0.02
				c0.237,0,0.489-0.012,0.761-0.035c0.273-0.023,0.539-0.049,0.795-0.077c0.262-0.036,0.5-0.073,0.711-0.111
				c0.171-0.03,0.306-0.056,0.41-0.079v-1.157c-0.111,0.021-0.241,0.044-0.39,0.068c-0.205,0.033-0.414,0.063-0.628,0.091
				c-0.217,0.019-0.423,0.038-0.622,0.056c-0.208,0.02-0.37,0.029-0.495,0.029l-1.097,0.031v-7.479h-1.316v8.398
				c0,0.168,0.034,0.225,0.048,0.242c0.013,0.016,0.06,0.05,0.211,0.05L29.898,55.361z"/>
		</g>
		<g>
			<path fill="#FFFFFF" d="M40.591,49.138c0-0.42,0.077-0.816,0.232-1.19c0.155-0.373,0.37-0.695,0.645-0.966
				s0.605-0.485,0.991-0.644c0.385-0.159,0.805-0.238,1.257-0.238c0.461,0,0.884,0.079,1.27,0.238
				c0.386,0.158,0.716,0.373,0.991,0.644c0.266,0.271,0.477,0.593,0.632,0.966c0.155,0.374,0.233,0.771,0.233,1.19
				c0,0.448-0.078,0.858-0.233,1.231c-0.155,0.374-0.366,0.696-0.632,0.967c-0.275,0.271-0.605,0.482-0.991,0.637
				s-0.809,0.23-1.27,0.23c-0.452,0-0.872-0.076-1.257-0.23c-0.386-0.154-0.716-0.366-0.991-0.637s-0.49-0.593-0.645-0.967
				C40.668,49.996,40.591,49.586,40.591,49.138z M43.716,50.874c0.487,0,0.877-0.166,1.17-0.497c0.292-0.331,0.438-0.74,0.438-1.226
				c0-0.494-0.146-0.902-0.438-1.225c-0.293-0.322-0.683-0.483-1.17-0.483c-0.497,0-0.889,0.161-1.177,0.483
				s-0.432,0.73-0.432,1.225c0,0.485,0.144,0.895,0.432,1.226S43.219,50.874,43.716,50.874z M42.546,58.434
				c-0.142,0-0.24-0.028-0.293-0.084s-0.08-0.159-0.08-0.308v-2.507c0-0.14,0.026-0.239,0.08-0.301
				c0.053-0.061,0.151-0.091,0.293-0.091h6.051v-0.938h-6.424v-1.232h7.634c0.133,0,0.228,0.03,0.286,0.091s0.086,0.161,0.086,0.301
				v2.492c0,0.149-0.029,0.252-0.086,0.309c-0.058,0.056-0.153,0.084-0.286,0.084h-6.025v0.951h6.65v1.232H42.546z M50.207,45.974
				v6.482h-1.503v-6.482H50.207z"/>
			<path fill="#FFFFFF" d="M50.533,58.534h-7.987c-0.172,0-0.292-0.038-0.365-0.115c-0.072-0.076-0.107-0.199-0.107-0.377v-2.507
				c0-0.166,0.034-0.285,0.104-0.366c0.074-0.084,0.195-0.125,0.369-0.125h5.951v-0.737h-6.424v-1.433h7.734
				c0.161,0,0.281,0.041,0.358,0.122c0.077,0.081,0.114,0.202,0.114,0.37v2.492c0,0.179-0.038,0.303-0.116,0.38
				c-0.078,0.075-0.197,0.113-0.356,0.113h-5.925v0.751h6.65V58.534z M42.546,55.244c-0.108,0-0.186,0.02-0.218,0.057
				c-0.036,0.042-0.055,0.123-0.055,0.235v2.507c0,0.167,0.036,0.222,0.052,0.238c0.019,0.02,0.073,0.053,0.221,0.053h7.787v-1.032
				h-6.65V56.15h6.125c0.104,0,0.178-0.019,0.216-0.056c0.021-0.021,0.056-0.079,0.056-0.237v-2.492c0-0.111-0.02-0.191-0.059-0.232
				c-0.047-0.049-0.142-0.06-0.213-0.06h-7.534v1.032h6.424v1.138H42.546z M50.307,52.556h-1.703v-6.683h1.703V52.556z
				 M48.804,52.356h1.303v-6.282h-1.303V52.356z M43.716,52.303c-0.465,0-0.9-0.08-1.294-0.238c-0.397-0.159-0.742-0.38-1.024-0.658
				c-0.283-0.278-0.507-0.615-0.667-1c-0.159-0.383-0.24-0.81-0.24-1.27c0-0.432,0.081-0.845,0.24-1.229
				c0.16-0.384,0.384-0.72,0.667-0.999c0.284-0.279,0.628-0.502,1.023-0.665C42.816,46.083,43.252,46,43.716,46
				c0.473,0,0.913,0.083,1.308,0.246c0.395,0.162,0.739,0.386,1.023,0.665c0.274,0.279,0.494,0.615,0.654,0.999
				c0.16,0.386,0.241,0.799,0.241,1.229c0,0.458-0.081,0.885-0.241,1.27c-0.16,0.385-0.379,0.721-0.653,0.999
				c-0.284,0.279-0.628,0.5-1.025,0.659C44.629,52.223,44.189,52.303,43.716,52.303z M43.716,46.2c-0.438,0-0.848,0.078-1.219,0.23
				c-0.372,0.153-0.694,0.362-0.959,0.623c-0.264,0.259-0.473,0.573-0.623,0.933c-0.149,0.359-0.225,0.747-0.225,1.152
				c0,0.433,0.076,0.835,0.225,1.193c0.149,0.36,0.359,0.675,0.623,0.934c0.263,0.259,0.585,0.466,0.958,0.615
				c0.37,0.148,0.78,0.223,1.22,0.223c0.448,0,0.862-0.075,1.233-0.223c0.372-0.149,0.694-0.356,0.958-0.615
				c0.254-0.259,0.46-0.573,0.61-0.934c0.149-0.36,0.225-0.761,0.225-1.193c0-0.403-0.076-0.791-0.225-1.152
				c-0.15-0.36-0.355-0.674-0.611-0.934c-0.264-0.26-0.586-0.469-0.958-0.622C44.577,46.277,44.163,46.2,43.716,46.2z
				 M43.716,50.974c-0.524,0-0.946-0.179-1.253-0.532c-0.303-0.348-0.457-0.782-0.457-1.291c0-0.517,0.154-0.952,0.458-1.292
				c0.307-0.343,0.728-0.517,1.252-0.517c0.514,0,0.933,0.174,1.245,0.516c0.308,0.34,0.464,0.774,0.464,1.292
				c0,0.509-0.156,0.944-0.464,1.292C44.65,50.795,44.231,50.974,43.716,50.974z M43.716,47.543c-0.471,0-0.832,0.147-1.103,0.45
				c-0.27,0.302-0.407,0.692-0.407,1.158c0,0.459,0.137,0.849,0.407,1.16c0.271,0.311,0.632,0.462,1.102,0.462
				c0.461,0,0.82-0.151,1.096-0.463c0.274-0.311,0.413-0.7,0.413-1.159c0-0.466-0.139-0.856-0.413-1.157
				C44.537,47.691,44.178,47.543,43.716,47.543z"/>
		</g>
	</g>
	<path fill="#8B8B8B" d="M44.515,35.909h-9.253c-2.997,0-5.436-2.439-5.436-5.436v-7.377h-6.341c-2.997,0-5.435-2.438-5.435-5.435
		V8.408c0-2.997,2.438-5.436,5.435-5.436h9.253c2.997,0,5.436,2.439,5.436,5.436v7.377h6.341c2.997,0,5.436,2.438,5.436,5.435v9.253
		C49.95,33.47,47.512,35.909,44.515,35.909z M23.485,4.525c-2.141,0-3.882,1.742-3.882,3.883v9.253c0,2.141,1.742,3.882,3.882,3.882
		h7.118c0.428,0,0.776,0.348,0.776,0.777v8.153c0,2.141,1.742,3.883,3.883,3.883h9.253c2.141,0,3.882-1.742,3.882-3.883V21.22
		c0-2.141-1.742-3.882-3.882-3.882h-7.117c-0.43,0-0.777-0.348-0.777-0.777V8.408c0-2.141-1.742-3.883-3.883-3.883H23.485z"/>
</g>
<g id="book">
</g>
</svg>
